# xmcd
#
# Track frame offsets: 
#        182
#        18482
#        48787
#        69832
#        87107
#        108660
#        112555
#        139320
#        162632
#        178077
#        200952
#        223902
#
# Disc length: 3106 seconds
#
# Revision: 2
# Processed by: cddbd v1.4PL0 Copyright (c) Steve Scherf et al.
# Submitted via: ExactAudioCopy v0.90b4
#
DISCID=ac0c200c
DTITLE=Whistle - Get The Love
DYEAR=1992
DGENRE=R&B
TTITLE0=Get The Love
TTITLE1=I Am
TTITLE2=Jennifer
TTITLE3=I Appreciate
TTITLE4=Will You Be Mine
TTITLE5=I Am (IV The Love)
TTITLE6=Sho-U
TTITLE7=If You Don't Say
TTITLE8=Special
TTITLE9=(Mister I Love) U'r Daughter
TTITLE10=Always
TTITLE11=Sho-U (Mad Reprise)
EXTD=
EXTT0=
EXTT1=
EXTT2=
EXTT3=
EXTT4=
EXTT5=
EXTT6=
EXTT7=
EXTT8=
EXTT9=
EXTT10=
EXTT11=
PLAYORDER=
